<svg width="960" height="120" viewBox="0 0 960 120" xmlns="http://www.w3.org/2000/svg">
  <style>
    text { font-family: Arial, sans-serif; }
  </style>
  <rect width="960" height="120" fill="#ffffff"/>
  <rect x="10" y="20" width="130" height="75" rx="8" fill="#1a1a2e"/>
  <text x="75" y="55" text-anchor="middle" font-size="11" font-weight="bold" fill="#f8c400">IDEA</text>
  <text x="75" y="72" text-anchor="middle" font-size="9" fill="#ffffff">idea-stress-tester</text>
  <line x1="140" y1="57" x2="165" y2="57" stroke="#cccccc" stroke-width="1.5"/>
  <polygon points="165,52 175,57 165,62" fill="#cccccc"/>
  <rect x="175" y="20" width="130" height="75" rx="8" fill="#f8f9fa" stroke="#dee2e6" stroke-width="1"/>
  <text x="240" y="52" text-anchor="middle" font-size="11" font-weight="bold" fill="#1a1a2e">ARCHI-</text>
  <text x="240" y="67" text-anchor="middle" font-size="11" font-weight="bold" fill="#1a1a2e">TECTURE</text>
  <text x="240" y="82" text-anchor="middle" font-size="9" fill="#6c757d">book-architect</text>
  <line x1="305" y1="57" x2="330" y2="57" stroke="#cccccc" stroke-width="1.5"/>
  <polygon points="330,52 340,57 330,62" fill="#cccccc"/>
  <rect x="340" y="20" width="130" height="75" rx="8" fill="#f8f9fa" stroke="#dee2e6" stroke-width="1"/>
  <text x="405" y="52" text-anchor="middle" font-size="11" font-weight="bold" fill="#1a1a2e">VOICE AND</text>
  <text x="405" y="67" text-anchor="middle" font-size="11" font-weight="bold" fill="#1a1a2e">RESEARCH</text>
  <text x="405" y="82" text-anchor="middle" font-size="9" fill="#6c757d">voice + research</text>
  <line x1="470" y1="57" x2="495" y2="57" stroke="#cccccc" stroke-width="1.5"/>
  <polygon points="495,52 505,57 495,62" fill="#cccccc"/>
  <rect x="505" y="20" width="130" height="75" rx="8" fill="#f8f9fa" stroke="#dee2e6" stroke-width="1"/>
  <text x="570" y="55" text-anchor="middle" font-size="11" font-weight="bold" fill="#1a1a2e">WRITING</text>
  <text x="570" y="72" text-anchor="middle" font-size="9" fill="#6c757d">chapter + narrative</text>
  <line x1="635" y1="57" x2="660" y2="57" stroke="#cccccc" stroke-width="1.5"/>
  <polygon points="660,52 670,57 660,62" fill="#cccccc"/>
  <rect x="670" y="20" width="130" height="75" rx="8" fill="#f8f9fa" stroke="#dee2e6" stroke-width="1"/>
  <text x="735" y="52" text-anchor="middle" font-size="11" font-weight="bold" fill="#1a1a2e">REVIEW</text>
  <text x="735" y="67" text-anchor="middle" font-size="11" font-weight="bold" fill="#1a1a2e">AND EDIT</text>
  <text x="735" y="82" text-anchor="middle" font-size="9" fill="#6c757d">critic + editor + reader</text>
  <line x1="800" y1="57" x2="820" y2="57" stroke="#cccccc" stroke-width="1.5"/>
  <polygon points="820,52 830,57 820,62" fill="#cccccc"/>
  <rect x="830" y="20" width="120" height="75" rx="8" fill="#f8c400"/>
  <text x="890" y="52" text-anchor="middle" font-size="11" font-weight="bold" fill="#1a1a2e">LAUNCH</text>
  <text x="890" y="67" text-anchor="middle" font-size="11" font-weight="bold" fill="#1a1a2e">AND BEYOND</text>
  <text x="890" y="82" text-anchor="middle" font-size="9" fill="#1a1a2e">launch + repurpose</text>
  <text x="480" y="112" text-anchor="middle" font-size="8" fill="#aaaaaa">awesome-book-writing-suite</text>
</svg>
